<?xml version="1.0" encoding="UTF-8" standalone="no"?>
<svg
   xmlns:dc="http://purl.org/dc/elements/1.1/"
   xmlns:cc="http://creativecommons.org/ns#"
   xmlns:rdf="http://www.w3.org/1999/02/22-rdf-syntax-ns#"
   xmlns:svg="http://www.w3.org/2000/svg"
   xmlns="http://www.w3.org/2000/svg"
   xmlns:sodipodi="http://sodipodi.sourceforge.net/DTD/sodipodi-0.dtd"
   xmlns:inkscape="http://www.inkscape.org/namespaces/inkscape"
   viewBox="0 0 120 126"
   style="width: 30px; height: 30px; display: block; fill: inherit; flex-shrink: 0; backface-visibility: hidden; margin-right: 10px;"
   class="notionLogo"
   version="1.1"
   id="svg72"
   sodipodi:docname="icon4.svg"
   inkscape:version="0.92.4 5da689c313, 2019-01-14">
  <metadata
     id="metadata78">
    <rdf:RDF>
      <cc:Work
         rdf:about="">
        <dc:format>image/svg+xml</dc:format>
        <dc:type
           rdf:resource="http://purl.org/dc/dcmitype/StillImage" />
        <dc:title></dc:title>
      </cc:Work>
    </rdf:RDF>
  </metadata>
  <defs
     id="defs76" />
  <sodipodi:namedview
     pagecolor="#ffffff"
     bordercolor="#666666"
     borderopacity="1"
     objecttolerance="10"
     gridtolerance="10"
     guidetolerance="10"
     inkscape:pageopacity="0"
     inkscape:pageshadow="2"
     inkscape:window-width="1920"
     inkscape:window-height="1016"
     id="namedview74"
     showgrid="false"
     inkscape:zoom="1.8730159"
     inkscape:cx="68.008475"
     inkscape:cy="63"
     inkscape:window-x="0"
     inkscape:window-y="27"
     inkscape:window-maximized="1"
     inkscape:current-layer="svg72" />
  <path
     style="fill:#ececec;stroke-width:0.82847005"
     d="m 20.356959,28.885566 96.032871,-2.669492 -0.5339,89.105966 -91.227784,2.66949 z"
     id="rect80"
     inkscape:connector-curvature="0"
     sodipodi:nodetypes="ccccc" />
  <path
     style="fill:#ececec"
     d="M 5.338983,10.677966 85.423731,2.1355931 111.58475,22.423728 10.144068,26.694915 Z"
     id="rect105"
     inkscape:connector-curvature="0"
     sodipodi:nodetypes="ccccc" />
  <path
     style="fill:#000000"
     id="path168"
     d="m 20.6927,21.9315 c 3.8909,3.1609 5.3505,2.9197 12.6565,2.4323 l 68.8788,-4.1359 c 1.461,0 0.246,-1.4574 -0.241,-1.6996 L 90.5477,10.2586 C 88.3558,8.55699 85.4356,6.60818 79.8387,7.09563 L 13.1433,11.9602 c -2.4323,0.2412 -2.9182,1.4573 -1.9494,2.4322 z m 4.1354,16.052 v 72.4725 c 0,3.895 1.9464,5.352 6.3272,5.111 l 75.6977,-4.38 c 4.383,-0.241 4.871,-2.92 4.871,-6.084 V 33.1169 c 0,-3.1589 -1.215,-4.8625 -3.898,-4.6193 l -79.105,4.6193 c -2.9192,0.2453 -3.8929,1.7056 -3.8929,4.8666 z m 74.7286,3.8876 c 0.4853,2.1911 0,4.3801 -2.1949,4.6263 l -3.6475,0.7267 v 53.5039 c -3.1666,1.702 -6.0868,2.675 -8.5201,2.675 -3.8959,0 -4.8716,-1.217 -7.7898,-4.863 L 53.5471,61.087 v 36.2369 l 7.5493,1.7036 c 0,0 0,4.3755 -6.0907,4.3755 l -16.7909,0.974 c -0.4878,-0.974 0,-3.404 1.7031,-3.891 l 4.3817,-1.2143 V 51.36 l -6.0838,-0.4875 c -0.4878,-2.191 0.7273,-5.35 4.1374,-5.5952 L 60.3661,44.0631 85.1942,82.0036 V 48.4402 L 78.864,47.7136 c -0.4859,-2.6785 1.4586,-4.6234 3.8929,-4.8646 z M 7.5434,5.39404 76.9175,0.285276 C 85.4366,-0.445402 87.6285,0.0440428 92.983,3.93368 l 22.145,15.56452 c 3.654,2.6765 4.872,3.4052 4.872,6.3229 v 85.3659 c 0,5.35 -1.949,8.514 -8.763,8.998 l -80.5636,4.865 c -5.115,0.244 -7.5494,-0.485 -10.2281,-3.892 L 4.13735,99.9994 C 1.21516,96.1048 0,93.191 0,89.7819 V 13.903 C 0,9.5279 1.94945,5.8785 7.5434,5.39404 Z"
     inkscape:connector-curvature="0" />
</svg>
